<svg xmlns="http://www.w3.org/2000/svg" viewBox="0 0 64 64" width="64" height="64">
  <circle cx="32" cy="32" r="32" fill="#8b5cf6"/>
  <g transform="translate(32, 32)">
    <ellipse cx="0" cy="3" rx="13" ry="5" fill="#fbbf24"/>
    <rect x="-13" y="3" width="26" height="13" fill="#f59e0b" rx="2"/>
    <ellipse cx="0" cy="16" rx="13" ry="4" fill="#d97706"/>
    <path d="M -15 6 Q -18 8 -16 12" fill="none" stroke="#d97706" stroke-width="1.5" stroke-linecap="round"/>
    <path d="M 15 6 Q 18 8 16 12" fill="none" stroke="#d97706" stroke-width="1.5" stroke-linecap="round"/>
    <g>
      <path d="M -5 -8 L -4 -6 L -2 -6 L -4 -5 L -3 -3 L -5 -4 L -7 -3 L -6 -5 L -8 -6 L -6 -6 Z" fill="#fcd34d"/>
      <path d="M 5 -10 L 6 -8 L 8 -8 L 6 -7 L 7 -5 L 5 -6 L 3 -5 L 4 -7 L 2 -8 L 4 -8 Z" fill="#ffffff"/>
      <path d="M 0 -12 L 1 -10 L 3 -10 L 1 -9 L 2 -7 L 0 -8 L -2 -7 L -1 -9 L -3 -10 L -1 -10 Z" fill="#a78bfa"/>
      <circle cx="-8" cy="-6" r="1" fill="#fbbf24"/>
      <circle cx="8" cy="-4" r="1" fill="#ffffff"/>
      <circle cx="2" cy="-14" r="0.8" fill="#fcd34d"/>
    </g>
  </g>
</svg>
