<svg xmlns="http://www.w3.org/2000/svg" viewBox="0 0 200 200" width="200" height="200">
  <circle cx="100" cy="100" r="95" fill="#8b5cf6" opacity="0.1"/>
  <circle cx="100" cy="100" r="90" fill="none" stroke="#8b5cf6" stroke-width="2" stroke-dasharray="5,5"/>
  <g transform="translate(100, 100)">
    <ellipse cx="0" cy="10" rx="40" ry="15" fill="#fbbf24"/>
    <rect x="-40" y="10" width="80" height="40" fill="#f59e0b" rx="5"/>
    <ellipse cx="0" cy="50" rx="40" ry="12" fill="#d97706"/>
    <path d="M -45 20 Q -55 25 -50 35" fill="none" stroke="#d97706" stroke-width="4" stroke-linecap="round"/>
    <path d="M 45 20 Q 55 25 50 35" fill="none" stroke="#d97706" stroke-width="4" stroke-linecap="round"/>
    <g opacity="0.9">
      <path d="M -15 -20 L -13 -15 L -8 -15 L -12 -12 L -10 -7 L -15 -10 L -20 -7 L -18 -12 L -22 -15 L -17 -15 Z" fill="#fbbf24"/>
      <path d="M 15 -25 L 17 -20 L 22 -20 L 18 -17 L 20 -12 L 15 -15 L 10 -12 L 12 -17 L 8 -20 L 13 -20 Z" fill="#a78bfa"/>
      <path d="M 0 -30 L 2 -26 L 6 -26 L 3 -23 L 5 -19 L 0 -22 L -5 -19 L -3 -23 L -6 -26 L -2 -26 Z" fill="#fcd34d"/>
      <circle cx="-25" cy="-15" r="2" fill="#fbbf24"/>
      <circle cx="25" cy="-10" r="2" fill="#a78bfa"/>
      <circle cx="5" cy="-35" r="2" fill="#fcd34d"/>
      <circle cx="-10" cy="-35" r="1.5" fill="#fbbf24"/>
      <circle cx="20" cy="-35" r="1.5" fill="#a78bfa"/>
    </g>
    <ellipse cx="-15" cy="25" rx="8" ry="12" fill="#ffffff" opacity="0.3"/>
  </g>
  <g transform="translate(100, 100)">
    <path d="M 0 -85 L 1 -82 L 4 -82 L 2 -80 L 3 -77 L 0 -79 L -3 -77 L -2 -80 L -4 -82 L -1 -82 Z" fill="#8b5cf6"/>
    <path d="M 60 -60 L 61 -58 L 63 -58 L 61 -56 L 62 -54 L 60 -56 L 58 -54 L 59 -56 L 57 -58 L 59 -58 Z" fill="#fbbf24"/>
    <path d="M -60 -60 L -59 -58 L -57 -58 L -59 -56 L -58 -54 L -60 -56 L -62 -54 L -61 -56 L -63 -58 L -61 -58 Z" fill="#a78bfa"/>
    <path d="M 75 20 L 76 22 L 78 22 L 76 24 L 77 26 L 75 24 L 73 26 L 74 24 L 72 22 L 74 22 Z" fill="#fcd34d"/>
    <path d="M -75 20 L -74 22 L -72 22 L -74 24 L -73 26 L -75 24 L -77 26 L -76 24 L -78 22 L -76 22 Z" fill="#8b5cf6"/>
  </g>
</svg>
